<svg id="Ebene_1" data-name="Ebene 1" xmlns="http://www.w3.org/2000/svg" viewBox="0 0 500 500"><defs><style>.cls-1{fill:#d61c16;}.cls-2{fill:#be1818;}.cls-3{fill:#349b37;}.cls-4{fill:#e41b13;}.cls-5{fill:#e73d2e;}.cls-6{fill:#50ae32;}.cls-7{fill:#358835;}</style></defs><path class="cls-1" d="M416.44,220.47c1.45,61.26-33.15,130.23-85.09,170.44S216.58,447.8,152.77,432.24c-24.64-6-66.31-30.46-69.67-41.84s44.28,16.72,99,7c42.85-7.64,77.45-41,99.94-78.26s32.07-92.93,46-121.76S415,159.2,416.44,220.47Z"/><path class="cls-2" d="M87.6,387.77c1.46.66,2.88,1.44,4.23,2.21,54.55,31.11,123.45,35.72,181.66,12.13S378,327.26,395.46,267c3.43-11.84,8.29-41.26.81-51-4.16-5.45-14.14,7.77-23.45,6.1-6.05-1.08-11.47-26.68-18.89-30.1-6.36-2.94-13.33,8.11-28.09,10.34.72-1.7,1.46-3.34,2.21-4.9,13.89-28.83,86.94-38.14,88.39,23.13S383.29,350.7,331.35,390.91,216.58,447.8,152.77,432.24c-24.64-6-66.31-30.46-69.67-41.84C82.38,388,84,387.33,87.6,387.77Z"/><path class="cls-3" d="M331.5,187.7c2.34-3.85,8.48-17.22,23.39-25.09a33.43,33.43,0,0,0,11.71-10.24,31.81,31.81,0,0,0,5.9-19,88.36,88.36,0,0,0-3.16-21.2c-4.09-15.13-15.23-38.3-18.64-43s9.36-9.84,11.65-5.34,13.17,28.37,17.26,43.5c2.05,7.6,3.19,16.39,4.8,27.06,1,6.93,6.09,23,11.4,30.28,4.9,6.71,11.85,17.13,15.09,25.5,4.43,11.45,8.31,14.12,4.81,15.17-7,2.1-16.53-12.44-25.07-15-5.36-1.62-5.88,5.68-7.12,9.59-1.31,4.13-2.42,8.41-4.31,12.33-1.11,2.28-3.07,6.82-6.18,4.66-2.21-1.54-3.51-6.35-4.54-8.72-1.95-4.49-3.61-9.09-5.63-13.54-1.23-2.69-2.41-5.43-4.88-7.19-3.32-2.37-6.75-1.69-10.21.23-4.66,2.57-10.79,8.33-19.63,8.45C323.82,196.1,327.31,194.6,331.5,187.7Z"/><path class="cls-4" d="M236.47,386.5c13.31-8,34.27-25.13,46.17-44.68,23.87-39.22,34.44-84.68,45.87-115.13,3.82-10.2,13.75-16.08,22.13-14.28,6.72,1.44,13.25,7.49,16.61,13.66s4.16,12.46,4.49,18.42c2.2,40.32-14.05,73.86-35.74,101.77-16.34,21-52.6,48.3-97.24,58.26C223.9,407.83,210.94,401.93,236.47,386.5Z"/><path class="cls-5" d="M279.53,355c10.26-7.62,23.06-27.62,30.92-44.37,9.87-21,16.4-43.56,23.55-65.74,1.32-4.09,2.73-8.32,5.24-11.64s6.41-5.5,9.29-4c3.74,1.93,4.32,8.45,3.12,13.87-13,58.62-44.38,101.8-71.92,119.42C273.08,366.79,269.26,362.65,279.53,355Z"/><path class="cls-6" d="M375.54,143.7c.39.07,1.67-4.27,1.89-11.52a89.46,89.46,0,0,0-4.18-27.84c-3.22-10.55-8-23.44-11.53-29.67s-7.5-5-4.56,1.46c3.31,6.89,9.62,19,12.75,29.22a117.79,117.79,0,0,1,5,26.87C375.37,139.22,375,143.62,375.54,143.7Z"/><path class="cls-6" d="M349.48,171.62c9.44-8.68,15-8.31,22.18-17.73,3.8-5,6.84,6.21,7.95,20.1A47.74,47.74,0,0,1,377,193.42c-.56,1.53-1.31,3.26-2.87,3.72-1.84.54-3.65-1-4.55-2.7-1.42-2.62-1.68-5.68-2.37-8.58s-2.05-5.93-4.73-7.22-6.37-1.1-10.15.78c-2.71,1.35-7.36,5.63-11.17,5.65S345.36,175.4,349.48,171.62Z"/><path class="cls-7" d="M388,175.45a18.61,18.61,0,0,0,2.08,6.68c1.36,2.19,3.55,3.71,5.68,5.17l8.45,5.78c.58.39,1.34.79,1.92.41.78-.51.35-1.7-.15-2.48-7.78-12.15-17.06-29-18.83-34.31s-2.66-3.26-2.29-1.18C385.6,159.66,387.27,171.3,388,175.45Z"/></svg>