<?xml version="1.0" encoding="utf-8"?>
<!-- Generator: Adobe Illustrator 26.3.1, SVG Export Plug-In . SVG Version: 6.00 Build 0)  -->
<svg version="1.1" id="Layer_1" xmlns="http://www.w3.org/2000/svg" xmlns:xlink="http://www.w3.org/1999/xlink" x="0px" y="0px"
	 viewBox="0 0 401.1 152.6" style="enable-background:new 0 0 401.1 152.6;" xml:space="preserve">
<style type="text/css">
	.st0{fill:#FFFFFF;}
</style>
<g>
	<g>
		<path class="st0" d="M203.7,1.6l30.2,0c-10.3,4.8-17.4,14.8-16.4,26.1C219,44.1,234,50.5,234,69.9c0,12.9-8.4,24.3-17.7,29.2
			l-27.5-7.6c9.5-4.4,15.8-13.7,15.4-23.7c-0.6-15.6-15.4-22.8-15.4-40.5C188.8,15.3,195.5,5.7,203.7,1.6"/>
	</g>
	<polygon class="st0" points="268.4,83.2 268.4,22.4 250,22.4 250,1.6 311.3,1.6 311.3,22.4 292.6,22.4 292.6,83.2 	"/>
	<g>
		<path class="st0" d="M0,42.5C0,66,19,85,42.6,85c11.7,0,22.3-4.7,30-12.3L56.1,56.2c-3.5,3.4-8.2,5.5-13.5,5.5
			c-10.6,0-19.2-8.6-19.2-19.2c0-10.6,8.6-19.2,19.2-19.2c5.3,0,10,2.1,13.5,5.5l16.5-16.5C64.9,4.7,54.3,0,42.6,0C19,0,0,19,0,42.5
			"/>
		<path class="st0" d="M126.5,61.7c-10.6,0-19.2-8.6-19.2-19.2c0-10.6,8.6-19.2,19.2-19.2c10.6,0,19.2,8.6,19.2,19.2
			C145.7,53.1,137.1,61.7,126.5,61.7 M127.2,0c-23.5,0-42.6,19-42.6,42.5c0,23.5,19,42.6,42.6,42.6c23.5,0,42.6-19,42.6-42.6
			C169.8,19,150.8,0,127.2,0"/>
	</g>
	<path class="st0" d="M352.4,51.2l7.4-31.3h1.3l7.4,31.3H352.4z M375.2,1.6h-29.5l-25.8,81.6h24.9l3.3-14.1h24.6l3.3,14.1h25
		L375.2,1.6z"/>
	<polygon class="st0" points="175.8,119.4 200.7,119.4 200.7,125.9 183.4,125.9 183.4,132.4 197.7,132.4 197.7,138.9 183.4,138.9 
		183.4,152 175.8,152 	"/>
	<polygon class="st0" points="211.1,119.4 235.9,119.4 235.9,125.9 218.7,125.9 218.7,132.4 232.9,132.4 232.9,138.9 218.7,138.9 
		218.7,152 211.1,152 	"/>
	<g>
		<path class="st0" d="M119,141c-1.7,2.7-4.8,4.5-8.2,4.5c-5.4,0-9.7-4.4-9.7-9.7c0-5.4,4.4-9.7,9.7-9.7c3,0,5.7,1.4,7.5,3.5l5-5
			c-3.1-3.4-7.5-5.6-12.5-5.6c-9.3,0-16.8,7.5-16.8,16.8c0,9.3,7.5,16.8,16.8,16.8c5.4,0,10.2-2.6,13.3-6.6L119,141z"/>
	</g>
	<polygon class="st0" points="254,145.4 254,138.9 268.2,138.9 268.2,132.4 254,132.4 254,125.9 270.7,125.9 270.7,119.4 
		246.4,119.4 246.4,152 271.4,152 271.4,145.4 	"/>
	<polygon class="st0" points="307.2,125.9 307.2,119.4 282.8,119.4 282.8,152 307.8,152 307.8,145.4 290.4,145.4 290.4,138.9 
		304.7,138.9 304.7,132.4 290.4,132.4 290.4,125.9 	"/>
	<g>
		<path class="st0" d="M148.5,145.4c-5.4,0-9.7-4.3-9.7-9.7c0-5.4,4.3-9.7,9.7-9.7c5.4,0,9.7,4.3,9.7,9.7
			C158.2,141,153.8,145.4,148.5,145.4 M148.4,118.9c-9.3,0-16.8,7.5-16.8,16.8c0,9.3,7.5,16.8,16.8,16.8c9.3,0,16.8-7.5,16.8-16.8
			C165.3,126.4,157.7,118.9,148.4,118.9"/>
	</g>
</g>
</svg>
