<?xml version="1.0" encoding="utf-8"?>
<!-- Generator: Adobe Illustrator 25.3.0, SVG Export Plug-In . SVG Version: 6.00 Build 0)  -->
<svg version="1.1" id="Ebene_1" xmlns="http://www.w3.org/2000/svg" xmlns:xlink="http://www.w3.org/1999/xlink" x="0px" y="0px"
	 viewBox="0 0 512 512" style="enable-background:new 0 0 512 512;" xml:space="preserve">
<style type="text/css">
	.st0{fill:#FFFFFF;}
	.st1{display:none;}
	.st2{display:inline;fill:#FFFFFF;}
</style>
<g>
	<path class="st0" d="M355.9,218.8h-34.7c-3.6,0-6.5-2.9-6.5-6.5c0-3.6,2.9-6.5,6.5-6.5h28.3v-9.5h-186v9.5H302
		c3.6,0,6.5,2.9,6.5,6.5c0,3.6-2.9,6.5-6.5,6.5H156.9c-3.6,0-6.5-2.9-6.5-6.5v-22.5c0-3.6,2.9-6.5,6.5-6.5h198.9
		c3.6,0,6.5,2.9,6.5,6.5v22.5C362.3,215.9,359.4,218.8,355.9,218.8z"/>
	<path class="st0" d="M336.4,196.3c-3.6,0-6.5-2.9-6.5-6.5v-15.7H182.7c-0.7,2.8-3.2,5-6.3,5c-3.6,0-6.5-2.9-6.5-6.5v-5
		c0-3.6,2.9-6.5,6.5-6.5h160c3.6,0,6.5,2.9,6.5,6.5v22.1C342.9,193.3,340,196.3,336.4,196.3z"/>
	<path class="st0" d="M181,423.8c-3.4,0-6.3-2.7-6.5-6.2l-9.5-205c-0.2-3.6,2.6-6.6,6.2-6.8c3.6-0.2,6.6,2.6,6.8,6.2l9.5,205
		c0.2,3.6-2.6,6.6-6.2,6.8C181.2,423.8,181.1,423.8,181,423.8z"/>
	<path class="st0" d="M331.8,423.8c-0.1,0-0.2,0-0.3,0c-3.6-0.2-6.4-3.2-6.2-6.8l9.5-205c0.2-3.6,2.8-6.4,6.8-6.2
		c3.6,0.2,6.4,3.2,6.2,6.8l-9.5,205C338.1,421.1,335.2,423.8,331.8,423.8z"/>
	<path class="st0" d="M331.8,423.8H181c-3.6,0-6.5-2.9-6.5-6.5c0-3.6,2.9-6.5,6.5-6.5h150.8c3.6,0,6.5,2.9,6.5,6.5
		C338.3,420.9,335.4,423.8,331.8,423.8z"/>
	<path class="st0" d="M249.3,174.1c-0.3,0-0.6,0-0.9-0.1c-3.5-0.5-6-3.8-5.5-7.4L253.6,93c0.3-1.7,1.2-3.2,2.6-4.3
		c1.4-1,3.1-1.4,4.8-1.2l17.6,2.7c3.6,0.5,6,3.8,5.4,7.4l-8,53.1c-0.5,3.5-3.9,5.9-7.4,5.4c-3.5-0.5-6-3.8-5.4-7.4l7.1-46.7
		l-4.7-0.7l-9.8,67.2C255.3,171.8,252.5,174.1,249.3,174.1z"/>
	<path class="st0" d="M179.1,381.8c-3.5,0-6.4-2.8-6.5-6.3c-0.1-3.6,2.7-6.6,6.3-6.7c26.2-0.9,54.5-12.5,81.8-23.8
		c18.4-7.6,37.5-15.4,55.9-20c3.5-0.9,7,1.3,7.9,4.8c0.9,3.5-1.3,7-4.7,7.8c-17.4,4.3-35.2,11.6-54,19.4
		c-28.4,11.7-57.7,23.8-86.3,24.7C179.2,381.8,179.1,381.8,179.1,381.8z"/>
	<path class="st0" d="M194.7,306.6c-3.1,0-5.8-2.2-6.4-5.4c-0.6-3.5,1.8-6.9,5.3-7.5c21.9-3.8,44.8-13.3,67.1-22.5
		c26-10.8,52.9-21.9,78.3-23.8c3.2-0.3,6.7,2.4,7,6c0.3,3.6-2.4,6.7-6,7c-23.2,1.8-48,12-74.3,22.8c-22.9,9.5-46.5,19.2-69.8,23.3
		C195.5,306.6,195.1,306.6,194.7,306.6z"/>
</g>
<g class="st1">
	<path class="st2" d="M114.7,368.2c-22.9,0-41.5-18.6-41.5-41.5c0-3.9,3.2-7,7.1-7c3.9,0,7.1,3.1,7.1,7c0,15.1,12.3,27.4,27.4,27.4
		c14.9,0,27-12.3,27-27.4c0-3.9,3.2-7,7.1-7c3.9,0,7.1,3.1,7.1,7C155.8,349.6,137.4,368.2,114.7,368.2z"/>
	<path class="st2" d="M397.3,368.2c-3.9,0-7-3.1-7-7c0-3.9,3.1-7,7-7c15.1,0,27.4-12.3,27.4-27.4c0-3.9,3.1-7,7-7s7,3.1,7,7
		C438.8,349.6,420.1,368.2,397.3,368.2z"/>
	<path class="st2" d="M431.7,333.8c-3.9,0-7-3.1-7-7c0-74.1-60.3-134.4-134.4-134.4c-74.1,0-134.4,60.3-134.4,134.4
		c0,3.9-3.2,7-7.1,7c-3.9,0-7.1-3.1-7.1-7c0-81.9,66.6-148.5,148.5-148.5s148.5,66.6,148.5,148.5
		C438.8,330.6,435.6,333.8,431.7,333.8z"/>
	<path class="st2" d="M397.3,368.2H114.7c-3.9,0-7.1-3.1-7.1-7c0-3.9,3.2-7,7.1-7h282.5c3.9,0,7,3.1,7,7
		C404.3,365.1,401.2,368.2,397.3,368.2z"/>
	<path class="st2" d="M85.7,285.7c-3.9,0-7.1-3.1-7.1-7c0-24.9,13.9-47.6,35.6-58.7c6.2-30.4,33.5-52.9,64.8-52.9
		c1.9,0,4.1,0.2,6.1,0.4c18.8-21.7,50.9-29.3,79.2-16.2c27.9-13.7,57.6-7.7,76.9,11.2h0.8c28,0,53.1,17.9,62.6,44.5
		c1.3,3.7-0.6,7.7-4.3,9c-3.7,1.3-7.7-0.6-9-4.3c-7.5-21-27.3-35.1-49.4-35.1h-3.7c-2,0-3.8-0.8-5.2-2.3
		c-15.5-16.7-41.1-22.2-65.3-9c-2.1,1.2-4.6,1.2-6.7,0.1c-24.4-12.8-52.4-5.9-67.5,13.8c-1.6,2-4.1,3-6.6,2.7
		c-2.6-0.4-5.5-0.8-8.1-0.8c-26.1,0-47.8,18.7-51.5,44.6c-0.4,2.4-1.9,4.5-4.1,5.4c-18.6,8.2-30.6,26.8-30.6,47.5
		C92.7,282.5,89.6,285.7,85.7,285.7z"/>
	<path class="st2" d="M121.8,348.3c-0.6,0-1.2-0.1-1.9-0.3c-18.5-5-31.4-22-31.4-41.3c0-23.8,19.4-43.1,43.2-43.1
		c10.8,0,21.7,4.3,29.7,11.9c2.8,2.7,3,7.1,0.3,10c-2.7,2.8-7.1,3-10,0.3c-5.4-5-12.9-8.1-20.1-8.1c-16,0-29,13-29,29
		c0,12.9,8.6,24.3,20.9,27.6c3.8,1,6,4.9,5,8.6C127.7,346.3,124.9,348.3,121.8,348.3z"/>
	<path class="st2" d="M131.7,259.9c-3.7,0-6.8-2.9-7-6.6c-0.6-9.8,5.4-18.8,14.9-22.4c7.9-2,15.1-0.7,20.5,3.5
		c3.1,2.4,3.6,6.8,1.2,9.9c-2.4,3.1-6.8,3.6-9.9,1.2c-1.9-1.5-4.7-1.9-7.6-1.2c-2.9,1.2-5.3,4.5-5,8.1c0.2,3.9-2.7,7.2-6.6,7.5
		C132,259.9,131.9,259.9,131.7,259.9z"/>
	<path class="st2" d="M174.1,225.5c-2.5,0-4.9-1.3-6.2-3.6c-2.2-4-7.1-5.4-11.1-3.1c-1.4,0.7-2.5,1.8-3.2,2.9
		c-2,3.3-6.3,4.5-9.7,2.4c-3.3-2-4.4-6.3-2.4-9.7c2-3.4,5.2-6.3,8.7-8.1c10.7-6,24-2.2,30.1,8.7c1.9,3.4,0.7,7.7-2.7,9.6
		C176.4,225.2,175.2,225.5,174.1,225.5z"/>
	<path class="st2" d="M207.3,219.3c-1.1,0-2.1-0.2-3.1-0.7l-14.1-7.1c-3.5-1.7-4.9-6-3.2-9.5c1.7-3.5,6-4.9,9.5-3.2l14.1,7.1
		c3.5,1.7,4.9,6,3.2,9.5C212.3,217.9,209.8,219.3,207.3,219.3z"/>
	<path class="st2" d="M223.9,208.9c-2.1,0-4.1-0.9-5.5-2.6l-12-14.9c-2.4-3-2-7.5,1.1-9.9c3-2.5,7.5-2,9.9,1.1l12,14.9
		c2.4,3,2,7.5-1.1,9.9C227,208.4,225.4,208.9,223.9,208.9z"/>
	<path class="st2" d="M241.3,201c-3.6,0-6.6-2.7-7-6.3l-1.7-14.9c-0.4-3.9,2.4-7.4,6.2-7.8c3.8-0.5,7.4,2.4,7.8,6.2l1.7,14.9
		c0.4,3.9-2.4,7.4-6.2,7.8C241.8,201,241.5,201,241.3,201z"/>
	<path class="st2" d="M292.7,192.3c-0.8,0-1.7-0.2-2.5-0.5c-3.6-1.4-5.5-5.5-4.1-9.1l4.6-12c1.4-3.6,5.5-5.4,9.1-4.1
		c3.6,1.4,5.5,5.5,4.1,9.1l-4.6,12C298.2,190.6,295.6,192.3,292.7,192.3z"/>
	<path class="st2" d="M268.7,194c-2.9,0-5.6-1.8-6.7-4.7l-3.3-9.5c-1.3-3.7,0.7-7.7,4.3-9c3.7-1.3,7.7,0.7,9,4.3l3.3,9.5
		c1.3,3.7-0.7,7.7-4.3,9C270.2,193.8,269.4,194,268.7,194z"/>
	<path class="st2" d="M357.5,209.3c-1.9,0-3.9-0.8-5.3-2.4c-2.6-2.9-2.3-7.4,0.6-10l7.9-7.1c2.9-2.6,7.4-2.4,10,0.6
		c2.6,2.9,2.3,7.4-0.6,10l-7.9,7.1C360.8,208.7,359.1,209.3,357.5,209.3z"/>
	<path class="st2" d="M322.2,196c-3.3,0-6.2-2.3-6.9-5.6l-2.1-9.5c-0.8-3.8,1.6-7.6,5.4-8.4c4-0.9,7.6,1.6,8.4,5.4l2.1,9.5
		c0.8,3.8-1.6,7.6-5.4,8.4C323.2,196,322.7,196,322.2,196z"/>
	<path class="st2" d="M382.3,340c-11.4,0-20.7-9.3-20.7-20.7c0-11.4,9.3-20.7,20.7-20.7c3.9,0,7,3.1,7,7c0,3.9-3.1,7-7,7
		c-3.5,0-6.6,3.1-6.6,6.6c0,3.6,3,6.6,6.6,6.6c3.6,0,6.6-3,6.6-6.6c0-3.9,3.1-7,7-7c3.9,0,7,3.1,7,7
		C403.1,330.7,393.8,340,382.3,340z"/>
	<path class="st2" d="M371.1,282.8h-0.8c-3.9,0-7-3.1-7-7s3.1-7.1,7-7.1c3.9,0,7.5,3.2,7.5,7.1S375,282.8,371.1,282.8z"/>
	<path class="st2" d="M336.3,311.4h-0.8c-3.9,0-7-3.1-7-7c0-3.9,3.1-7,7-7c3.9,0,7.5,3.1,7.5,7C342.9,308.2,340.2,311.4,336.3,311.4
		z"/>
	<path class="st2" d="M214.7,255.8h-0.8c-3.9,0-7.1-3.2-7.1-7.1s3.2-7.1,7.1-7.1s7.5,3.2,7.5,7.1S218.6,255.8,214.7,255.8z"/>
	<path class="st2" d="M192.7,291.1h-0.8c-3.9,0-7.1-3.1-7.1-7c0-3.9,3.2-7,7.1-7s7.5,3.1,7.5,7C199.4,287.9,196.6,291.1,192.7,291.1
		z"/>
	<path class="st2" d="M228.8,285.2H228c-3.9,0-7.1-3.1-7.1-7s3.2-7,7.1-7s7.5,3.1,7.5,7S232.7,285.2,228.8,285.2z"/>
</g>
</svg>
