<?xml version="1.0" encoding="utf-8"?>
<!-- Generator: Adobe Illustrator 27.2.0, SVG Export Plug-In . SVG Version: 6.00 Build 0)  -->
<svg version="1.1" id="Ebene_1" xmlns="http://www.w3.org/2000/svg" xmlns:xlink="http://www.w3.org/1999/xlink" x="0px" y="0px"
	 viewBox="0 0 512 512" style="enable-background:new 0 0 512 512;" xml:space="preserve">
<style type="text/css">
	.st0{fill:#FFFFFF;}
	.st1{display:none;}
	.st2{display:inline;fill:#FFFFFF;}
</style>
<g>
	<path class="st0" d="M367.4,303.2H144.6c-14.2,0-25.3-11.1-25.3-25.3V141c0-3.1-1.2-5.5-3.7-7.8c-6.6-5.4-10.7-14.1-10.7-22.9V86.8
		c0-16.5,13.4-29.8,29.8-29.8h242.6c16.5,0,29.8,13.4,29.8,29.8v23.5c0,8.9-4.1,17.5-10.9,23.1c-2.3,2.1-3.5,4.5-3.5,7.6v136.9
		C392.7,291.9,381.3,303.2,367.4,303.2L367.4,303.2z M134.7,72.4c-8,0-14.5,6.5-14.5,14.5v23.5c0,4.3,2,8.5,5.3,11.2
		c6.1,5.4,9.1,12,9.1,19.5v136.9c0,5.7,4.3,9.9,9.9,9.9h222.7c5.5,0,9.9-4.5,9.9-9.9V141c0-7.5,3.1-14.1,8.9-19.3
		c3.6-2.9,5.6-7.1,5.6-11.4V86.8c0-8-6.5-14.5-14.5-14.5C377.3,72.4,134.7,72.4,134.7,72.4z"/>
	<path class="st0" d="M367.4,340.3H144.6c-13.9,0-25.3-11.3-25.3-25.3v-37c0-4.3,3.4-7.7,7.7-7.7s7.7,3.4,7.7,7.7v37
		c0,5.5,4.5,10,9.9,10h222.7c5.2,0,9.9-4.7,9.9-10c0-4.3,3.4-7.7,7.7-7.7s7.7,3.4,7.7,7.7C392.7,328.7,381.1,340.3,367.4,340.3
		L367.4,340.3z"/>
	<path class="st0" d="M273.4,381.4c-0.2,0-0.5,0-0.7,0c-2.2-0.2-4.2-1.3-5.5-3.1c-8.5-11.7-29.7-24.6-63.1-38.5
		c-3.9-1.6-5.8-6.1-4.2-10c1.6-3.9,6.1-5.7,10-4.2c31.4,13.1,52.7,25.5,64.6,37.7c16.7-10.7,42.8-14.1,44-14.3
		c4.1-0.4,8,2.4,8.6,6.7c0.5,4.2-2.5,8.1-6.7,8.6c-11.5,1.4-33.1,6.8-41.7,15.1C277.2,380.6,275.3,381.4,273.4,381.4L273.4,381.4z"
		/>
	<path class="st0" d="M127,213.3h-3.6c-26.9,0-48.8-21.9-48.8-48.8c0-14.5,6.5-28,17.8-37.1c3.3-2.6,8.1-2.1,10.8,1.1
		c2.7,3.3,2.1,8.1-1.1,10.8c-7.7,6.2-12.1,15.4-12.1,25.2c0,18.4,15,33.4,33.4,33.4h3.6c4.3,0,7.7,3.4,7.7,7.7
		C134.7,209.9,131.3,213.3,127,213.3L127,213.3z"/>
	<path class="st0" d="M101.7,306.4c-1.3,0-2.5-0.3-3.7-1c-26.8-14.8-14.8-38.1-7.6-52c2.8-5.5,5.8-11.2,5.9-14.8
		c0.2-2.9-1.7-6-4.9-10.9C85.8,218.9,78,206.8,83,187c1-4.1,5.1-6.7,9.3-5.6c4.1,1,6.6,5.2,5.6,9.3c-3.3,13.3,1.5,20.8,6.5,28.7
		c3.8,6,7.8,12.1,7.3,20.1c-0.4,6.8-3.9,13.6-7.6,20.9c-8.9,17.4-11.1,24.6,1.4,31.5c3.7,2.1,5.1,6.7,3,10.4
		C107,305,104.4,306.4,101.7,306.4z"/>
	<path class="st0" d="M406.2,209.7c-2.9,0-5.6-1.6-6.9-4.3c-1.9-3.8-0.3-8.4,3.6-10.3c11.6-5.6,19.2-17.6,19.2-30.6
		c0-16-12.2-30.1-28.3-32.6c-4.2-0.7-7-4.6-6.4-8.8c0.7-4.2,4.5-7.1,8.8-6.4c23.5,3.7,41.2,24.3,41.2,47.8
		c0,18.8-10.9,36.2-27.8,44.4C408.5,209.4,407.3,209.7,406.2,209.7L406.2,209.7z"/>
	<path class="st0" d="M410.3,306.4c-2.7,0-5.3-1.4-6.7-4c-2.1-3.7-0.7-8.4,3-10.4c12.5-6.9,10.3-14.2,1.4-31.5
		c-3.7-7.3-7.3-14.1-7.6-21c-0.5-7.9,3.5-14.1,7.3-20.1c5-7.9,9.8-15.3,6.5-28.7c-1-4.1,1.5-8.3,5.6-9.3c4.2-1.1,8.3,1.5,9.3,5.6
		c4.9,19.7-2.8,31.8-8.5,40.7c-3.1,4.9-5.1,8.1-4.9,10.9c0.2,3.6,3.1,9.3,6,14.9c7.1,13.9,19.1,37.2-7.6,52
		C412.8,306.1,411.5,306.4,410.3,306.4L410.3,306.4z"/>
	<path class="st0" d="M181.4,387.1c-10.1,0-20.6-1.5-30.9-4.7c-25.3-7.6-46-23.5-56.8-43.6c-7.6-14.2-9.5-29.1-5.5-43.2
		c0.1-1.1,0.4-2.4,1.2-3.9c1.9-3.8,6.5-5.3,10.3-3.4c3.6,1.8,5.1,6,3.7,9.7c-0.1,0.4-0.1,0.9-0.3,1.3c-3.1,10.3-1.7,21.6,4.1,32.4
		c8.7,16.3,26.5,29.8,47.7,36.2c23,7,47.5,4.6,64.1-6.3c3.5-2.3,8.3-1.4,10.6,2.2c2.3,3.5,1.4,8.3-2.2,10.6
		C214.6,382.7,198.5,387.1,181.4,387.1L181.4,387.1z"/>
	<path class="st0" d="M337.3,387.1c-5.5,0-10.9-0.4-16.3-1.3c-4.2-0.7-7.1-4.6-6.4-8.8c0.7-4.2,4.6-7,8.8-6.4
		c13.4,2.1,27.4,1.1,40.8-2.9c36.4-10.9,59.6-41.7,51.8-68.7l-0.6-1.6c-0.5-1.1-0.9-2.3-1.3-3.6c-1-4.1,1.5-8.3,5.6-9.3
		c4.1-1,8.3,1.5,9.3,5.6c1,2.5,1.5,3.6,1.8,5c10.2,35.3-17,73.8-62.2,87.4C358.4,385.5,347.8,387.1,337.3,387.1L337.3,387.1z"/>
	<path class="st0" d="M367.4,418H144.6c-14.2,0-25.3-11.1-25.3-25.3v-6.8c0-4.3,3.4-7.7,7.7-7.7s7.7,3.4,7.7,7.7v6.8
		c0,5.7,4.3,9.9,9.9,9.9h222.7c5.5,0,9.9-4.5,9.9-9.9V390c0-4.3,3.4-7.7,7.7-7.7s7.7,3.4,7.7,7.7v2.7
		C392.7,406.6,381.3,418,367.4,418L367.4,418z"/>
	<path class="st0" d="M367.4,455H144.6c-13.9,0-25.3-11.3-25.3-25.3v-37c0-4.3,3.4-7.7,7.7-7.7s7.7,3.4,7.7,7.7v37
		c0,5.5,4.5,9.9,9.9,9.9h222.7c5.2,0,9.9-4.7,9.9-9.9c0-4.3,3.4-7.7,7.7-7.7s7.7,3.4,7.7,7.7C392.7,443.4,381.1,455,367.4,455
		L367.4,455z"/>
	<path class="st0" d="M152.8,107.6h-0.9c-4.3,0-7.7-3.4-7.7-7.7c0-4.2,3.4-7.7,7.7-7.7c4.3,0,8.1,3.4,8.1,7.7
		C160,104.2,157,107.6,152.8,107.6L152.8,107.6z"/>
	<path class="st0" d="M169.5,141.5h-0.9c-4.3,0-7.7-3.4-7.7-7.7s3.4-7.7,7.7-7.7c4.2,0,8.1,3.4,8.1,7.7S173.7,141.5,169.5,141.5
		L169.5,141.5z"/>
	<path class="st0" d="M197.5,110.8h-0.9c-4.3,0-7.7-3.4-7.7-7.7c0-4.2,3.4-7.7,7.7-7.7c4.3,0,8.1,3.4,8.1,7.7
		C204.7,107.3,201.7,110.8,197.5,110.8L197.5,110.8z"/>
	<path class="st0" d="M355.6,273.9h-0.9c-4.3,0-7.7-3.4-7.7-7.7c0-4.2,3.4-7.7,7.7-7.7s8.1,3.4,8.1,7.7
		C362.8,270.4,359.9,273.9,355.6,273.9L355.6,273.9z"/>
</g>
<g class="st1">
	<path class="st2" d="M114.7,368.2c-22.9,0-41.5-18.6-41.5-41.5c0-3.9,3.2-7,7.1-7s7.1,3.1,7.1,7c0,15.1,12.3,27.4,27.4,27.4
		c14.9,0,27-12.3,27-27.4c0-3.9,3.2-7,7.1-7c3.9,0,7.1,3.1,7.1,7C155.8,349.6,137.4,368.2,114.7,368.2z"/>
	<path class="st2" d="M397.3,368.2c-3.9,0-7-3.1-7-7s3.1-7,7-7c15.1,0,27.4-12.3,27.4-27.4c0-3.9,3.1-7,7-7s7,3.1,7,7
		C438.8,349.6,420.1,368.2,397.3,368.2z"/>
	<path class="st2" d="M431.7,333.8c-3.9,0-7-3.1-7-7c0-74.1-60.3-134.4-134.4-134.4s-134.4,60.3-134.4,134.4c0,3.9-3.2,7-7.1,7
		c-3.9,0-7.1-3.1-7.1-7c0-81.9,66.6-148.5,148.5-148.5s148.5,66.6,148.5,148.5C438.8,330.6,435.6,333.8,431.7,333.8z"/>
	<path class="st2" d="M397.3,368.2H114.7c-3.9,0-7.1-3.1-7.1-7s3.2-7,7.1-7h282.5c3.9,0,7,3.1,7,7
		C404.3,365.1,401.2,368.2,397.3,368.2z"/>
	<path class="st2" d="M85.7,285.7c-3.9,0-7.1-3.1-7.1-7c0-24.9,13.9-47.6,35.6-58.7c6.2-30.4,33.5-52.9,64.8-52.9
		c1.9,0,4.1,0.2,6.1,0.4c18.8-21.7,50.9-29.3,79.2-16.2c27.9-13.7,57.6-7.7,76.9,11.2h0.8c28,0,53.1,17.9,62.6,44.5
		c1.3,3.7-0.6,7.7-4.3,9c-3.7,1.3-7.7-0.6-9-4.3c-7.5-21-27.3-35.1-49.4-35.1h-3.7c-2,0-3.8-0.8-5.2-2.3
		c-15.5-16.7-41.1-22.2-65.3-9c-2.1,1.2-4.6,1.2-6.7,0.1c-24.4-12.8-52.4-5.9-67.5,13.8c-1.6,2-4.1,3-6.6,2.7
		c-2.6-0.4-5.5-0.8-8.1-0.8c-26.1,0-47.8,18.7-51.5,44.6c-0.4,2.4-1.9,4.5-4.1,5.4c-18.6,8.2-30.6,26.8-30.6,47.5
		C92.7,282.5,89.6,285.7,85.7,285.7z"/>
	<path class="st2" d="M121.8,348.3c-0.6,0-1.2-0.1-1.9-0.3c-18.5-5-31.4-22-31.4-41.3c0-23.8,19.4-43.1,43.2-43.1
		c10.8,0,21.7,4.3,29.7,11.9c2.8,2.7,3,7.1,0.3,10c-2.7,2.8-7.1,3-10,0.3c-5.4-5-12.9-8.1-20.1-8.1c-16,0-29,13-29,29
		c0,12.9,8.6,24.3,20.9,27.6c3.8,1,6,4.9,5,8.6C127.7,346.3,124.9,348.3,121.8,348.3z"/>
	<path class="st2" d="M131.7,259.9c-3.7,0-6.8-2.9-7-6.6c-0.6-9.8,5.4-18.8,14.9-22.4c7.9-2,15.1-0.7,20.5,3.5
		c3.1,2.4,3.6,6.8,1.2,9.9c-2.4,3.1-6.8,3.6-9.9,1.2c-1.9-1.5-4.7-1.9-7.6-1.2c-2.9,1.2-5.3,4.5-5,8.1c0.2,3.9-2.7,7.2-6.6,7.5
		C132,259.9,131.9,259.9,131.7,259.9z"/>
	<path class="st2" d="M174.1,225.5c-2.5,0-4.9-1.3-6.2-3.6c-2.2-4-7.1-5.4-11.1-3.1c-1.4,0.7-2.5,1.8-3.2,2.9
		c-2,3.3-6.3,4.5-9.7,2.4c-3.3-2-4.4-6.3-2.4-9.7s5.2-6.3,8.7-8.1c10.7-6,24-2.2,30.1,8.7c1.9,3.4,0.7,7.7-2.7,9.6
		C176.4,225.2,175.2,225.5,174.1,225.5z"/>
	<path class="st2" d="M207.3,219.3c-1.1,0-2.1-0.2-3.1-0.7l-14.1-7.1c-3.5-1.7-4.9-6-3.2-9.5s6-4.9,9.5-3.2l14.1,7.1
		c3.5,1.7,4.9,6,3.2,9.5C212.3,217.9,209.8,219.3,207.3,219.3z"/>
	<path class="st2" d="M223.9,208.9c-2.1,0-4.1-0.9-5.5-2.6l-12-14.9c-2.4-3-2-7.5,1.1-9.9c3-2.5,7.5-2,9.9,1.1l12,14.9
		c2.4,3,2,7.5-1.1,9.9C227,208.4,225.4,208.9,223.9,208.9z"/>
	<path class="st2" d="M241.3,201c-3.6,0-6.6-2.7-7-6.3l-1.7-14.9c-0.4-3.9,2.4-7.4,6.2-7.8c3.8-0.5,7.4,2.4,7.8,6.2l1.7,14.9
		c0.4,3.9-2.4,7.4-6.2,7.8C241.8,201,241.5,201,241.3,201z"/>
	<path class="st2" d="M292.7,192.3c-0.8,0-1.7-0.2-2.5-0.5c-3.6-1.4-5.5-5.5-4.1-9.1l4.6-12c1.4-3.6,5.5-5.4,9.1-4.1
		c3.6,1.4,5.5,5.5,4.1,9.1l-4.6,12C298.2,190.6,295.6,192.3,292.7,192.3z"/>
	<path class="st2" d="M268.7,194c-2.9,0-5.6-1.8-6.7-4.7l-3.3-9.5c-1.3-3.7,0.7-7.7,4.3-9c3.7-1.3,7.7,0.7,9,4.3l3.3,9.5
		c1.3,3.7-0.7,7.7-4.3,9C270.2,193.8,269.4,194,268.7,194z"/>
	<path class="st2" d="M357.5,209.3c-1.9,0-3.9-0.8-5.3-2.4c-2.6-2.9-2.3-7.4,0.6-10l7.9-7.1c2.9-2.6,7.4-2.4,10,0.6
		c2.6,2.9,2.3,7.4-0.6,10l-7.9,7.1C360.8,208.7,359.1,209.3,357.5,209.3z"/>
	<path class="st2" d="M322.2,196c-3.3,0-6.2-2.3-6.9-5.6l-2.1-9.5c-0.8-3.8,1.6-7.6,5.4-8.4c4-0.9,7.6,1.6,8.4,5.4l2.1,9.5
		c0.8,3.8-1.6,7.6-5.4,8.4C323.2,196,322.7,196,322.2,196z"/>
	<path class="st2" d="M382.3,340c-11.4,0-20.7-9.3-20.7-20.7c0-11.4,9.3-20.7,20.7-20.7c3.9,0,7,3.1,7,7s-3.1,7-7,7
		c-3.5,0-6.6,3.1-6.6,6.6c0,3.6,3,6.6,6.6,6.6s6.6-3,6.6-6.6c0-3.9,3.1-7,7-7s7,3.1,7,7C403.1,330.7,393.8,340,382.3,340z"/>
	<path class="st2" d="M371.1,282.8h-0.8c-3.9,0-7-3.1-7-7s3.1-7.1,7-7.1s7.5,3.2,7.5,7.1S375,282.8,371.1,282.8z"/>
	<path class="st2" d="M336.3,311.4h-0.8c-3.9,0-7-3.1-7-7s3.1-7,7-7s7.5,3.1,7.5,7C342.9,308.2,340.2,311.4,336.3,311.4z"/>
	<path class="st2" d="M214.7,255.8h-0.8c-3.9,0-7.1-3.2-7.1-7.1s3.2-7.1,7.1-7.1s7.5,3.2,7.5,7.1S218.6,255.8,214.7,255.8z"/>
	<path class="st2" d="M192.7,291.1h-0.8c-3.9,0-7.1-3.1-7.1-7s3.2-7,7.1-7s7.5,3.1,7.5,7C199.4,287.9,196.6,291.1,192.7,291.1z"/>
	<path class="st2" d="M228.8,285.2H228c-3.9,0-7.1-3.1-7.1-7s3.2-7,7.1-7s7.5,3.1,7.5,7S232.7,285.2,228.8,285.2z"/>
</g>
</svg>
