<svg xmlns="http://www.w3.org/2000/svg" width="20" height="20" viewBox="0 0 20 20">
  <g id="Gruppe_56" data-name="Gruppe 56" transform="translate(-106 -1401)">
    <circle id="Ellipse_9" data-name="Ellipse 9" cx="10" cy="10" r="10" transform="translate(106 1401)" fill="#ed0678"/>
    <path id="flame" d="M102.765,35.755a6.815,6.815,0,0,0-1.211-2.041A4.479,4.479,0,0,0,98.541,32a.363.363,0,0,0-.351.454c.315,1.2-.338,2.2-1.028,3.26A5.362,5.362,0,0,0,96,38.533a3.629,3.629,0,0,0,7.259,0A7.774,7.774,0,0,0,102.765,35.755Zm-2.4,5.016a1.042,1.042,0,0,1-1.467,0,1.652,1.652,0,0,1-.355-1.15,3.249,3.249,0,0,1,.393-1.424,4.488,4.488,0,0,0,.295-.757.181.181,0,0,1,.283-.1,2.869,2.869,0,0,1,.548.559,3.034,3.034,0,0,1,.658,1.724A1.658,1.658,0,0,1,100.363,40.771Z" transform="translate(16.371 1373.919)" fill="#fff"/>
  </g>
</svg>
